<?xml version="1.0" encoding="utf-8"?>
<!-- Generator: Adobe Illustrator 28.0.0, SVG Export Plug-In . SVG Version: 6.00 Build 0)  -->
<svg version="1.1" id="Layer_1" xmlns="http://www.w3.org/2000/svg" xmlns:xlink="http://www.w3.org/1999/xlink" x="0px" y="0px"
	 viewBox="0 0 500 500" enable-background="new 0 0 500 500" xml:space="preserve">
<circle fill="#FFFFFF" stroke="#000000" stroke-width="0.9998" stroke-miterlimit="10" cx="250" cy="250" r="249.938"/>
<g>
	<defs>
		<circle id="SVGID_1_" cx="250" cy="250" r="249.938"/>
	</defs>
	<clipPath id="SVGID_00000176726823495324449540000015308830547350102181_">
		<use xlink:href="#SVGID_1_"  overflow="visible"/>
	</clipPath>
	<g clip-path="url(#SVGID_00000176726823495324449540000015308830547350102181_)">
		<rect x="-10.962" y="56.54" fill="none" width="536.526" height="386.921"/>
		<path fill="#231F20" d="M146.071,236.137c30.052,0.08,60.098,0.159,90.15,0.239v105.922c-14.32,0-35.479,0-49.8,0
			c-7.72-0.444-14.228,5.308-14.844,12.266c-0.669,7.607,5.871,14.877,14.367,14.744c5.361-0.126,10.722-0.252,16.076-0.378v28.727
			c-52.868,24.545-89.156-26.593-74.1-73.57c1.18-3.512,3.545-10.371,8.906-17.15c2.883-3.645,14.38-17.07,29.833-18.144
			c20.914-1.451,35.572,20.655,41.583,15.878c2.306-1.63,0.212-30.324-1.365-30.642c-3.837-6.256-12.18-7.356-26.805-9.297
			c-8.409-1.113-14.691-2.008-23.174-1.001c-5.281,0.623-20.53,2.604-34.472,12.969c-37.454,29.661-37.143,92.416-0.378,128.148
			c35.552,33.054,90.799,14.566,97.532,9.45c4.771-3.625,7.607-8.23,7.607-8.23c1.524-2.478,2.379-4.718,2.843-6.136v-29.522h34.459
			c7.853,0.795,72.788,6.269,118.963-43.259c2.664-2.856,40.396-44.631,36.288-103.768C414.374,146.1,339.439,77.162,260.409,75.956
			c-42.524-0.649-88.268,18.243-115.424,53.524C117.424,165.847,94.595,239.411,146.071,236.137z M320.864,210.558H151.399
			c-1.06-45.413,36.487-82.383,78.633-93.033c40.761-11.829,90.21,7.892,110.527,25.539c48.083,42.285,50.668,80.038,40.165,123.522
			c-14.711,52.49-58.607,78.898-115.901,75.458c-0.013-0.013-0.02-0.02-0.026-0.033V236.369h56.069
			c8.939,1.034,16.196-5.341,16.666-11.855C338.027,217.476,330.658,209.617,320.864,210.558z"/>
	</g>
</g>
<g>
</g>
<g>
</g>
<g>
</g>
<g>
</g>
<g>
</g>
<g>
</g>
</svg>
